<?xml version="1.0" encoding="UTF-8"?>
<svg width="150px" height="50px" viewBox="0 0 150 50" version="1.1" xmlns="http://www.w3.org/2000/svg" xmlns:xlink="http://www.w3.org/1999/xlink">
    <title>Sci-fi_doodle_desktop</title>
    <defs>
        <rect id="path-1" x="0" y="0" width="150" height="50"></rect>
        <polygon id="path-3" points="0.039871317 0.0164122723 6.10848404 0.0164122723 6.10848404 6.6125511 0.039871317 6.6125511"></polygon>
    </defs>
    <g id="Sci-fi_doodle_desktop" stroke="none" stroke-width="1" fill="none" fill-rule="evenodd">
        <g id="doodle">
            <mask id="mask-2" fill="white">
                <use xlink:href="#path-1"></use>
            </mask>
            <g id="Mask"></g>
            <g id="Wordmark" mask="url(#mask-2)">
                <g transform="translate(5.000000, 12.000000)" id="Group-19">
                    <g transform="translate(0.000000, 0.500000)">
                        <path d="M7.34415323,6.70621016 C2.94353526,6.70621016 0.680274653,10.1275033 0.680274653,14.1103432 C0.680274653,18.1721657 2.92255138,21.3333944 7.07436057,21.3333944 C11.4539947,21.3333944 13.8421593,18.0719927 13.8421593,14.1103432 C13.8831278,10.3278493 11.6198672,6.70621016 7.34415323,6.70621016 L7.34415323,6.70621016 Z M13.8831278,17.3515177 L13.8201762,17.3515177 C13.1357022,20.2526818 10.043079,21.9536964 7.13631296,21.9536964 C2.38296607,21.9536964 0.037768442,18.31183 0.037768442,14.1103432 C0.037768442,9.70754731 2.5488386,6.06568088 7.34415323,6.06568088 C10.5826643,6.06568088 13.1357022,8.14716022 13.8001915,10.8287143 L13.8621439,10.8287143 L13.8621439,6.44614564 L14.5266332,6.44614564 L14.5266332,22.3139339 C14.5266332,26.7764484 11.8696752,28.8771918 7.44807336,28.8771918 C4.001722,28.8771918 1.05398744,27.3765232 0.95106654,23.7144295 L1.61555586,23.7144295 C1.73946063,26.9758312 4.33446628,28.2376257 7.40610562,28.2376257 C11.5169463,28.2376257 13.8621439,26.3564924 13.8621439,22.2946699 L13.8621439,17.3515177 L13.8831278,17.3515177 Z" id="Fill-1" fill="#3A2110"></path>
                        <path d="M24.0754946,22.594322 C28.6010166,22.594322 31.0501343,18.7925641 31.0501343,14.6498326 C31.0501343,10.5677829 28.6010166,6.70630648 24.0754946,6.70630648 C19.4680356,6.70630648 17.0598863,10.5677829 17.0598863,14.6498326 C17.0598863,18.7925641 19.4680356,22.594322 24.0754946,22.594322 M24.0754946,6.0657772 C29.037681,6.0657772 31.7156229,10.1882814 31.7156229,14.6498326 C31.7156229,19.1528016 29.037681,23.2348513 24.0345261,23.2348513 C19.0733389,23.2348513 16.3744132,19.1528016 16.3744132,14.6498326 C16.3943978,10.1882814 19.0733389,6.0657772 24.0754946,6.0657772" id="Fill-3" fill="#3A2110"></path>
                        <path d="M40.4340225,22.594322 C44.9795291,22.594322 47.407663,18.7925641 47.407663,14.6498326 C47.407663,10.5677829 44.9585452,6.70630648 40.4340225,6.70630648 C35.8255643,6.70630648 33.4172802,10.5677829 33.4172802,14.6498326 C33.3964311,18.7925641 35.8255643,22.594322 40.4340225,22.594322 M40.4340225,6.0657772 C45.3952096,6.0657772 48.0731516,10.1882814 48.0731516,14.6498326 C48.0731516,19.1528016 45.3952096,23.2348513 40.3920547,23.2348513 C35.4308676,23.2348513 32.7529257,19.1528016 32.7529257,14.6498326 C32.7529257,10.1882814 35.4308676,6.0657772 40.4340225,6.0657772" id="Fill-5" fill="#3A2110"></path>
                        <path d="M56.3552864,6.70621016 C51.6848758,6.70621016 49.7753434,10.8884329 49.7753434,14.6901908 C49.7753434,18.8926407 51.9546685,22.5942257 56.3552864,22.5942257 C60.7359198,22.5942257 63.2469899,18.932132 63.2469899,14.6901908 C63.2270053,9.60737431 60.487111,6.70621016 56.3552864,6.70621016 L56.3552864,6.70621016 Z M63.2270053,0.0630065711 L63.8904954,0.0630065711 L63.8904954,22.8542902 L63.2270053,22.8542902 L63.2270053,18.2521115 L63.1640537,18.2521115 C62.3137072,21.1137843 59.8226217,23.234755 56.3552864,23.234755 C51.8507483,23.234755 49.110854,19.6323798 49.110854,14.6901908 C49.110854,10.0880121 51.6638919,6.06568088 56.3552864,6.06568088 C59.9675103,6.06568088 62.3746603,8.0874417 63.1640537,11.0483244 L63.2270053,11.0483244 L63.2270053,0.0630065711 Z" id="Fill-7" fill="#3A2110"></path>
                        <path d="M67.108822,6.3858492 L69.0183544,6.3858492 L69.0183544,10.2482889 L69.081306,10.2482889 C70.1394928,7.60718922 72.4637066,6.02561168 75.5373444,6.16527596 L75.5373444,8.16680953 C71.7582487,7.96646354 69.184227,10.6480177 69.184227,14.0702741 L69.184227,22.8546755 L67.0878381,22.8546755 L67.0878381,6.3858492 L67.108822,6.3858492 Z" id="Fill-9" fill="#3A2110"></path>
                        <path d="M88.3863694,13.4697177 C88.2824493,10.4481533 86.3309491,7.58648038 82.9475494,7.58648038 C79.5641496,7.58648038 77.6746018,10.4683805 77.3418575,13.4697177 L88.3863694,13.4697177 Z M77.3418575,15.150505 C77.3638406,18.0921236 78.9616127,21.6338171 82.967534,21.6338171 C86.0201879,21.6338171 87.6589285,19.9125752 88.324417,17.4313671 L90.4198067,17.4313671 C89.5284917,21.1734065 87.2652311,23.3348316 82.967534,23.3348316 C77.5496978,23.3348316 75.2664525,19.3125005 75.2664525,14.630376 C75.2664525,10.2882617 77.5496978,5.92592029 82.967534,5.92592029 C88.4693057,5.92592029 90.6486308,10.5483263 90.4827583,15.1707322 L77.3418575,15.1707322 L77.3418575,15.150505 Z" id="Fill-11" fill="#3A2110"></path>
                        <path d="M103.394335,13.8497971 L103.332383,13.8497971 C103.06259,14.3304349 102.128308,14.4903264 101.567739,14.5904994 C98.0174676,15.1905742 93.6178489,15.170347 93.6178489,18.3922573 C93.6178489,20.413055 95.4644297,21.653659 97.4169291,21.653659 C100.591489,21.653659 103.415319,19.7128072 103.373351,16.4908968 L103.373351,13.8497971 L103.394335,13.8497971 Z M92.2678863,11.4283075 C92.4547427,7.56683106 95.2775733,5.90530777 99.1805737,5.90530777 C102.190261,5.90530777 105.470739,6.80686476 105.470739,11.2086975 L105.470739,19.9526444 C105.470739,20.7126108 105.865436,21.1739845 106.695798,21.1739845 C106.923623,21.1739845 107.193416,21.1133027 107.359288,21.0535842 L107.359288,22.7343716 C106.902639,22.8345446 106.570894,22.8547718 105.989341,22.8547718 C103.871968,22.8547718 103.540223,21.7143407 103.540223,19.9728717 L103.477272,19.9728717 C102.024388,22.1140695 100.530536,23.3142191 97.2500574,23.3142191 C94.1154664,23.3142191 91.5204608,21.8145137 91.5204608,18.4924303 C91.5204608,13.8700244 96.1908714,13.7091697 100.696409,13.1890406 C102.418086,12.9896578 103.373351,12.7690846 103.373351,10.948633 C103.373351,8.22758757 101.359899,7.56683106 98.8897972,7.56683106 C96.3157754,7.56683106 94.3852591,8.72748937 94.3233067,11.4080803 L92.2678863,11.4080803 L92.2678863,11.4283075 Z" id="Fill-13" fill="#3A2110"></path>
                        <path d="M115.787211,21.6339134 C120.229797,21.6339134 121.7866,18.0315382 121.7866,14.610245 C121.7866,11.1879886 120.229797,7.5865767 115.787211,7.5865767 C111.822258,7.5865767 110.183518,11.1879886 110.183518,14.610245 C110.183518,18.0315382 111.802273,21.6339134 115.787211,21.6339134 L115.787211,21.6339134 Z M123.863004,22.8542902 L121.952473,22.8542902 L121.952473,19.7123256 L121.89052,19.7123256 C120.998206,21.8544866 118.278296,23.3147007 115.808195,23.3147007 C110.598199,23.3147007 108.128097,19.2721423 108.128097,14.610245 C108.128097,9.94834779 110.598199,5.90578937 115.808195,5.90578937 C118.361233,5.90578937 120.832334,7.14639343 121.723649,9.50816452 L121.7866,9.50816452 L121.7866,0.0630065711 L123.863004,0.0630065711 L123.863004,22.8542902 Z" id="Fill-15" fill="#3A2110"></path>
                        <path d="M137.23163,11.1882776 C137.12771,8.70706949 135.155226,7.58686566 132.768061,7.58686566 C130.92048,7.58686566 128.741155,8.28711345 128.741155,10.4283113 C128.741155,12.2092716 130.858528,12.8498009 132.290428,13.2100384 L135.07229,13.8101132 C137.460454,14.1703507 139.929557,15.5101646 139.929557,18.3718375 C139.929557,21.9539854 136.25538,23.3140265 133.079821,23.3140265 C129.114868,23.3140265 126.394958,21.5340293 126.063213,17.5116982 L128.138618,17.5116982 C128.304491,20.2134795 130.401879,21.6342023 133.182742,21.6342023 C135.134242,21.6342023 137.854152,20.8135543 137.854152,18.5124649 C137.854152,16.5908771 136.005572,15.9705751 134.118023,15.5101646 L131.439082,14.930317 C128.720171,14.2300692 126.664751,13.3294755 126.664751,10.5275211 C126.664751,7.18617367 130.069135,5.90607833 133.079821,5.90607833 C136.484205,5.90607833 139.203115,7.62635694 139.328019,11.2085049 L137.23163,11.2085049 L137.23163,11.1882776 Z" id="Fill-17" fill="#3A2110"></path>
                    </g>
                </g>
            </g>
            <g id="Group-67" mask="url(#mask-2)">
                <g transform="translate(76.000000, 30.000000)">
                    <polygon id="Fill-3" fill="#A3EFD9" points="3 27.099303 4.52924862 22.7995702 9.42012044 17 14.6321526 18.5786783 16.8189898 21.5949214 18 29.2183713 4.26634085 39"></polygon>
                    <path d="M13.0536881,12.4912092 L11,15.4720455 L18.503902,20 L19.9876957,17.3160339 C19.9432482,17.2841938 19.8988008,17.2525147 19.8546106,17.2204598 C19.5998094,17.0359697 19.3477348,16.8480969 19.1026565,16.6498076 C18.8196641,16.4207521 18.5417132,16.1797766 18.3369154,15.8694294 C18.1190509,15.5392695 17.9879207,15.1508522 17.839814,14.7836976 C17.6814185,14.3909849 17.5229716,13.9982722 17.3645246,13.6055596 C17.3442558,13.5551953 17.3866455,13.4948977 17.4317617,13.4819576 C17.4866008,13.4662792 17.5300194,13.5021463 17.5502368,13.5521347 C17.7251972,13.9859228 17.900209,14.4197108 18.0751694,14.8534988 C18.2144277,15.198693 18.3430372,15.5630556 18.5677438,15.8599257 C18.7811841,16.1417618 19.0580547,16.36475 19.330141,16.5811339 C19.5913212,16.7888195 19.8626358,16.9815784 20.1333331,17.1751964 L22.0387602,18.2184569 C22.0387602,18.2184569 24.7984116,16.744791 25.9536337,8.237681 C25.9536337,8.237681 26.6969453,3.57404354 22.2312629,2.37646856 C17.610426,1.13722759 10.5506898,2.57744251 13.0536881,12.4912092 Z" id="Fill-5" fill="#B87969"></path>
                    <path d="M10.1882953,19.7662169 C10.4176918,19.8962062 10.6470884,20.0261955 10.8765363,20.1561847 C11.1975887,20.3380842 11.5185898,20.5199837 11.8396422,20.7018832 C12.2173116,20.9158795 12.5949811,21.1298758 12.9726505,21.343872 C13.3789367,21.5741036 13.7851716,21.8042284 14.1914578,22.03446 C14.5939421,22.2625019 14.9964265,22.4905973 15.3989622,22.7185858 C15.7654315,22.9262802 16.1319009,23.1339212 16.4983188,23.3415088 C16.800516,23.5127272 17.1027646,23.683999 17.4049618,23.8552174 C17.4901443,23.9034961 17.5752753,23.9517747 17.6604577,24 L19,20.9303524 L10.7958237,16 L10,19.6590853 C10.0627822,19.6947602 10.1254617,19.7305954 10.1882953,19.7662169" id="Fill-7" fill="#FF9388"></path>
                    <path d="M23.3397433,5.93541301 C23.3397433,5.93541301 24.2116855,6.7386778 23.3397433,9.18184539 C23.3397433,9.18184539 26.2344574,9.58350461 27.8388423,8.78023983 C27.8388423,8.78023983 28.6060621,4.79750375 26.7925116,3.3248427 C24.9789052,1.8522353 24.3162962,2.45467048 21.9795804,0.71432604 C19.6428646,-1.02607205 16.2249851,0.71432604 14.5160454,2.72240752 C12.8071057,4.73054266 11.3073873,3.05710566 10.0170022,4.96479916 C8.72656124,6.87254632 9.73800309,7.14028337 8.06389631,8.14432411 C6.38984544,9.14836485 5.83179121,9.01449633 5.44818135,11.4577176 C5.20407106,12.4617583 3.35557583,11.424237 3.07657667,15.1392897 C3.07657667,15.1392897 2.83246638,17.5155499 3.66946386,18.5865517 C3.66946386,18.5865517 1.4025258,20.5611526 2.03030187,22.9708934 C2.03030187,22.9708934 -0.379378646,27.1197981 2.17159062,31 C2.17159062,31 4.12100639,22.1874272 6.94599868,20.8152077 C9.77099096,19.4429883 10.6447224,19.1555063 10.6447224,19.1555063 C10.6447224,19.1555063 12.8071057,17.2812397 12.2491073,15.3065851 C12.2491073,15.3065851 14.8299334,14.4029324 15.7018757,12.6960685 C15.7018757,12.6960685 13.4697706,11.056112 15.3530429,8.41206115 C17.2363711,5.76806395 19.3987543,9.34919446 18.5965898,11.3907565 C18.5965898,11.3907565 20.0962522,12.1605407 21.6308594,9.68389259 C23.1653548,7.20724445 23.3397433,5.93541301 23.3397433,5.93541301" id="Fill-9" fill="#513140"></path>
                    <path d="M23.0717185,48.3681828 C22.8323698,46.6350759 22.6537187,44.8940513 22.5381692,43.1487177 C22.4221826,41.3965438 22.369516,39.6405456 22.3795139,37.8847091 C22.3797325,37.8532 22.3901128,37.8283698 22.4062296,37.8095721 C22.4065574,37.790505 22.4117476,37.7704146 22.4245864,37.7498933 L23.2213592,36.4788657 C23.6179973,35.8461526 24.1524754,35.0945669 23.9591826,34.3089945 C23.8629187,33.9179049 23.6266294,33.5672654 23.4302225,33.2195884 C23.2892685,32.9699395 23.1482598,32.7203445 23.0073058,32.4707496 C22.6529538,32.0022069 22.2349541,31.4779713 21.7605727,30.927128 C20.2270146,29.1465151 18.1141244,23.3676966 18.1141244,23.3676966 L10.0033118,19 C9.73069139,19 8.53793609,19.3023794 6.35686348,20.6126722 C1.68806126,23.4684718 0.552179272,38.8071979 0.340475039,41.5472487 C0.0225635737,45.660826 0,51.046939 0,51.046939 C0.133414641,51.7652382 1.9435268,52.8078386 5.55468199,53.3872824 C5.39679161,52.7273154 5.2378632,52.0676715 5.08002745,51.4077583 C4.75861945,50.0646638 4.44158211,48.720492 4.14749079,47.371311 C3.85618577,46.0350569 3.58728042,44.6937397 3.36033348,43.3453128 C3.13513481,42.0070658 2.95074725,40.6615474 2.82886025,39.310212 C2.70866688,37.9784284 2.65053699,36.6409354 2.67370153,35.3038195 C2.6741386,35.2817362 2.67976583,35.2631001 2.68850717,35.2472647 C2.6905286,35.1976043 2.69227687,35.14789 2.69451684,35.0981756 C2.73669378,34.182258 2.82487201,33.2687102 2.95615595,32.3610872 C3.08727599,31.4541644 3.26297685,30.5534896 3.48227512,29.6633178 C3.70168265,28.773146 3.96479687,27.8934233 4.27074363,27.0285127 C4.57696356,26.1631711 4.92634383,25.3128031 5.31637132,24.4809096 C5.37160564,24.3631141 5.54774356,24.4656667 5.49294631,24.5826543 C5.44530603,24.6841835 5.39821208,24.7860898 5.35177373,24.8881577 C4.97376558,25.7199973 4.63858998,26.5706346 4.34570059,27.4351144 C4.05401313,28.296147 3.80461188,29.171076 3.59820709,30.0557539 C3.39202082,30.9396239 3.22790224,31.8334583 3.1092386,32.7328943 C2.9999719,33.5608559 2.92829294,34.393665 2.8938193,35.2279284 C2.90988151,35.2468339 2.92009794,35.2718795 2.91955161,35.3038195 C2.91665604,35.4719218 2.91485314,35.640024 2.91441607,35.808234 C2.91086491,37.1405024 2.98713306,38.472286 3.12142184,39.7977679 C3.25816911,41.1479722 3.45561404,42.4916054 3.69184865,43.8281827 C3.93010469,45.1761787 4.20764211,46.5172804 4.50506607,47.8536961 C4.80216223,49.1886037 5.11914493,50.5190947 5.43820369,51.849047 C5.75720782,53.1786762 6.07823339,54.5077667 6.38341529,55.8405737 C6.40231842,55.9231975 6.51584653,57 6.51584653,57 L19.7282667,57 C19.7282667,57 18.862492,53.7343131 18.8439713,53.6762503 C18.8007563,53.5406266 18.7581969,53.4048413 18.7165117,53.268679 C18.388056,52.1966164 18.108224,51.1103881 17.8631934,50.0169423 C17.6179443,48.9222039 17.4073327,47.8201403 17.2166077,46.7150066 C17.0256641,45.6085802 16.8546617,44.4989759 16.6884671,43.3887253 C16.6049873,42.83088 16.5095975,42.2729809 16.4471516,41.7124425 C16.4160106,41.4323618 16.4014781,41.1514732 16.4166662,40.8698844 C16.4324006,40.5789775 16.4728839,40.2901712 16.5099253,40.001365 C16.655851,38.8637527 16.6256934,37.7185458 16.6498959,36.5747394 C16.650333,36.5554031 16.6544851,36.5384905 16.6614236,36.5239479 C16.6679796,36.0410242 16.670001,35.5579927 16.6667777,35.0750151 C16.6613143,34.2578797 16.6420287,33.4408521 16.6089209,32.6244169 C16.5800745,31.9103189 16.539919,31.1967057 16.4899295,30.4837926 C16.480915,30.4690345 16.4755609,30.4522297 16.4767629,30.4344014 C16.4782926,30.4109178 16.4799316,30.3874879 16.481516,30.3640042 C16.4767629,30.2976467 16.4724468,30.2312352 16.4675298,30.1648238 C16.4069961,29.3527514 16.3333503,28.541487 16.2448443,27.7318383 C16.162785,26.9815992 16.0576704,26.2176252 15.7559304,25.5178006 C15.7341864,25.4674938 15.7399775,25.4102388 15.7925894,25.3798608 C15.8359137,25.354869 15.9108706,25.3659107 15.9324508,25.4160559 C15.9705302,25.5044429 16.0069707,25.5934224 16.0400785,25.6838022 C16.3072356,26.412012 16.3925182,27.1895591 16.4732117,27.955095 C16.5095975,28.3000789 16.5428692,28.6453861 16.5742834,28.9908549 C16.6110516,28.4467443 16.6478199,27.9025798 16.6845881,27.3584154 C16.729005,26.7008721 16.7734766,26.0433289 16.8178389,25.3857856 C16.8216086,25.3312238 16.8617094,25.2849566 16.9200579,25.2849566 C16.9727244,25.2849566 17.0260466,25.3313853 17.0223315,25.3857856 C16.9973094,25.7563539 16.9722327,26.1268683 16.9472106,26.4974366 C16.9030123,27.1522329 16.8587592,27.8069754 16.8145609,28.4617717 C16.771783,29.0950233 16.7289504,29.7283288 16.6861725,30.3615805 C16.687593,30.381617 16.6892866,30.4015997 16.6906524,30.4215824 C16.7488369,31.2407645 16.79309,32.0609161 16.8234115,32.8816602 C16.8538422,33.7063363 16.8702322,34.5316048 16.8725815,35.3569271 C16.8736741,35.7358439 16.8704508,36.1147069 16.8653699,36.4935699 C16.884273,36.5129062 16.8965109,36.5396755 16.895746,36.5747394 C16.8926319,36.7206507 16.8904466,36.866562 16.8888076,37.0124732 C16.8823609,37.5808754 16.8835628,38.1494392 16.8608899,38.7174644 C16.8380532,39.2887751 16.7692698,39.8510909 16.7030542,40.4184159 C16.6700557,40.7009203 16.6484208,40.9845559 16.6587465,41.2691071 C16.6690176,41.5494032 16.7043108,41.8280835 16.7445209,42.1055249 C16.8255968,42.6636395 16.9096229,43.2213771 16.9939222,43.7791147 C17.1609363,44.8837098 17.334725,45.9873354 17.5301485,47.0874061 C17.7263368,48.1914088 17.9442693,49.2918027 18.19897,50.3842251 C18.3920989,51.2128868 18.6068626,52.0367011 18.8482327,52.8530285 C21.5645482,52.0936328 23.1627923,51.1310171 23.4734921,50.9337218 C23.3247802,50.0808761 23.1901089,49.2256605 23.0717185,48.3681828" id="Fill-39" fill="#FF9388"></path>
                </g>
            </g>
            <g id="reading" mask="url(#mask-2)">
                <g transform="translate(41.000000, 29.000000)" id="Group-41">
                    <g>
                        <path d="M16.7562764,47.7334701 C16.5131358,46.9922068 16.2818774,46.2473242 16.0622236,45.4992003 C15.671333,44.1679839 15.3165887,42.8267737 14.9944927,41.4782709 C14.6728408,40.1314426 14.3837817,38.7773757 14.1239839,37.4180148 C14.1186535,37.3900324 14.097943,37.0991344 14.0823407,36.979696 C13.9751234,36.1568624 13.9048853,35.3297072 13.8622982,34.5014175 C13.820544,33.6893879 13.8054414,32.8761699 13.8079955,32.0631679 C13.8067184,32.0602509 13.8051638,32.0574958 13.8040533,32.0544707 C13.6801787,31.6973441 13.5623563,31.3382727 13.4508637,30.9773106 C13.2539192,30.3397658 13.0766304,29.6963869 12.9193302,29.0485243 C12.7613083,28.3979066 12.6234972,27.7426972 12.5058413,27.0840846 C12.495958,27.0291462 12.5201666,26.9735056 12.579633,26.9575696 C12.6308819,26.9439026 12.6998985,26.97464 12.7096708,27.0294163 C12.7760222,27.4006962 12.8487034,27.7709497 12.927881,28.1399068 C13.067691,28.7916048 13.2276007,29.4392514 13.4072771,30.081604 C13.5328729,30.5307268 13.6688518,30.9770405 13.8136034,31.4205453 C13.8224873,30.7808937 13.8408103,30.1413501 13.8647968,29.5020767 C13.8961124,28.6689253 13.9367562,27.836206 13.9777886,27.0034867 C13.9842849,26.8715157 14.1956656,26.8711916 14.1891693,27.0034867 C14.18395,27.1089339 14.1787863,27.214327 14.1736225,27.3197201 C14.1330343,28.1487661 14.0939453,28.977866 14.0651837,29.8072901 C14.0364777,30.6372003 14.0180436,31.4675427 14.0190431,32.2979391 C14.0200425,33.1258506 14.0403089,33.9539242 14.0891702,34.7805932 C14.1377539,35.6029947 14.2382527,36.433175 14.3534655,37.2494722 C14.3564083,37.2708642 14.3612944,37.3345538 14.364959,37.3534068 C14.5111543,38.118439 14.6665111,38.8819045 14.8319178,39.6432093 C15.1261962,40.9978164 15.4516236,42.3461032 15.8115872,43.6856927 C16.1711066,45.0231755 16.5652175,46.351853 16.997196,47.6689162 C17.0462794,47.8184977 16.8049712,47.8819713 16.7562764,47.7334701 M30.3926934,29.8055614 C28.7718857,24.3207963 23.8391133,20.0701195 23.240118,20.0015681 C22.6411226,19.9329626 15.7352414,22.1268794 12.6698599,24.355099 C11.443885,25.246214 9.86455385,27.7912073 8.40509955,30.5546036 C8.17056522,31.0405681 7.94158331,31.5291256 7.71832039,32.0201139 C7.09422808,33.3922776 6.51333362,34.7828621 5.96641999,36.1857091 C5.41717434,37.5945524 4.90218713,39.0157662 4.41251898,40.4450831 C3.92434998,41.8698083 3.46127792,43.3025824 3.0140858,44.7398943 C2.87943955,45.172649 2.74673665,45.6058899 2.61475556,46.0394549 C2.61842016,46.0401032 2.62219581,46.0408595 2.62580488,46.0415077 C2.04579881,48.290309 1.42986856,50.6303501 1,52.1491782 C1,52.1491782 6.92465709,57.721942 15.6016501,56.9213106 L17.8635405,45.6157216 L19.1517581,39.6095008 L28.8813794,39.6095008 C28.857504,38.7372388 28.8115855,37.865517 28.7434017,36.9954699 C28.666112,36.0098198 28.5604494,35.0262765 28.4266915,34.0462985 C28.2934334,33.0707502 28.1313582,32.0988752 27.9421316,31.1321862 C27.7520167,30.1611215 27.5340285,29.1951887 27.2884449,28.2359545 C27.0439717,27.2813659 26.771903,26.3335299 26.4732382,25.3936348 C26.4328721,25.2666876 26.6370347,25.2128836 26.6771232,25.3389665 C26.7147686,25.4575945 26.7520809,25.5763306 26.7889489,25.6951748 C27.0825055,26.6416063 27.3485776,27.5960328 27.5869431,28.5569957 C27.8253642,29.5179046 28.0360786,30.4853499 28.2188644,31.4577651 C28.402594,32.4345559 28.5577287,33.4163165 28.6853234,34.4014804 C28.8123073,35.3822687 28.9110849,36.3665143 28.9815451,37.3527046 C29.0351815,38.1040696 29.0720496,38.8566231 29.0926491,39.6095008 L33,39.6095008 C33,39.6095008 32.01339,35.2902725 30.3926934,29.8055614" id="Fill-2" fill="#7A2942"></path>
                        <path d="M18.8967349,14.065104 C21.7883847,11.6483828 20.5894351,6.95513285 20.4131075,4.9937615 C20.2367799,3.03233496 12.196621,-2.43147735 7.54169558,4.15315801 C2.88682575,10.7377934 10.2570178,19.7390948 10.2570178,19.7390948 L12.8167405,18.4138334 C12.9099335,18.3626686 13.0027375,18.3110071 13.0950969,18.2584625 C13.3035446,18.1397956 13.5128259,18.0196384 13.709826,17.8827023 C13.9642867,17.7058057 14.1715119,17.454011 14.3472282,17.2022163 C14.5371707,16.9300551 14.6215279,16.6012649 14.7172771,16.2884257 C14.8218066,15.9467753 14.92039,15.5998263 14.9592343,15.2438255 C14.9654027,15.1871413 15.002691,15.1387362 15.0649864,15.1387362 C15.1177791,15.1387362 15.1769069,15.1873069 15.170794,15.2438255 C15.1252256,15.6617539 15.0082481,16.0646143 14.8840464,16.4650463 C14.8336433,16.6275372 14.784685,16.7910768 14.7196111,16.9485451 C14.6538703,17.1074484 14.5727363,17.2520565 14.4705963,17.3905932 C14.2744854,17.6564624 14.0534786,17.905111 13.7772895,18.0910593 C13.7312765,18.1220231 13.6847078,18.1522694 13.6378612,18.1821293 L14.8061355,21 L22,18.2330181 L18.8967349,14.065104 Z" id="Fill-8" fill="#E1A287"></path>
                        <path d="M7,3.9688033 C7,3.9688033 8.19211227,5.73122561 9.58996503,6.21388905 L9.82808907,5.46046319 C9.82808907,5.46046319 10.3390417,7.62101276 11.9568926,7.98539283 C11.9568926,7.98539283 11.5508825,10.2148383 13.3292695,10.8725723 C13.3292695,10.8725723 13.4218887,6.28732565 17.0527691,7.05779329 C19.9426964,8.26047176 17.6641328,11.9812968 17.0527691,12.0752508 C17.0527691,12.0752508 18.0666061,15.1821234 20.8488829,14.9915807 L20.2473006,13.9066811 C20.2473006,13.9066811 21.4987643,14.8940389 24.1293469,13.8981041 C24.1293469,13.8981041 22.2182205,12.6953696 22.0992966,12.5074616 C22.0992966,12.5074616 24.2282659,12.4301009 25,11.1247794 C25,11.1247794 22.4806046,10.4591411 22.2397727,10.1021047 C22.2397727,10.1021047 24.8405691,8.90626536 25,6.90161439 C25,6.90161439 22.3586413,6.20105166 22.0992966,5.73122561 C22.0992966,5.73122561 23.7438391,4.49081979 23.5771135,3.02505892 C23.5771135,3.02505892 20.8698272,2.23278453 18.6459178,1.21352939 C16.2377096,0.109738076 13.3107568,-0.527814928 10.7994296,0.570931126 C7.30863837,2.07795103 7,3.9688033 7,3.9688033" id="Fill-10" fill="#513140"></path>
                        <path d="M20,10.4999724 C20,12.4329906 18.4329505,14 16.5,14 C14.5669908,14 13,12.4329906 13,10.4999724 C13,8.56700942 14.5669908,7 16.5,7 C18.4329505,7 20,8.56700942 20,10.4999724" id="Fill-12" fill="#A3EFD9"></path>
                        <path d="M12,24.9058299 C12,24.9058299 14.9115253,17.8542896 21.6299722,16.2771654 C28.3483645,14.7000953 25.7856765,20.3570712 32.3656691,20.5970625 C34.2703578,20.6656237 31.5414373,25.437463 28.7328387,26 L23.2011044,21.3387015 L12,24.9058299 Z" id="Fill-14" fill="#A23658"></path>
                        <g id="Group-34" transform="translate(11.000000, 0.000000)">
                            <mask id="mask-4" fill="white">
                                <use xlink:href="#path-3"></use>
                            </mask>
                            <g id="Clip-33"></g>
                            <path d="M3.30112578,6.6125511 C3.80354319,6.30599885 4.37656551,6.14234209 4.97397958,6.14234209 C5.36708002,6.14234209 5.74963694,6.21322033 6.10848404,6.34891927 C6.08965257,4.95102857 5.74953203,2.26547344 3.59456105,0.621968169 C3.59456105,0.621968169 1.66331217,-0.991042378 0.039871317,1.04796242 C0.039871317,1.04796242 2.01145837,1.41136222 2.74373516,3.9411302 C3.10945391,5.2044092 3.25103092,6.06623471 3.30112578,6.6125511" id="Fill-32" fill="#A3EFD9" mask="url(#mask-4)"></path>
                        </g>
                    </g>
                </g>
            </g>
        </g>
        <g id="book-left" transform="translate(36.500000, 43.699224) scale(-1, 1) translate(-36.500000, -43.699224) translate(26.000000, 36.199224)">
            <polygon id="Fill-18-Copy" fill="#FF9388" points="20.4469391 6.2468 17.4245565 14.3244 13.394713 14.3244 0 14.3244 4.62344348 2.51988"></polygon>
            <polygon id="Fill-20-Copy" fill="#BD564C" points="20.4469391 6.2468 15.2428 5.02136 11.8019478 14.3244 17.4245565 14.3244"></polygon>
            <polygon id="Path-14-Copy" fill="#FFFFFF" points="6.56462609 2.97712 7.16447065 1.34959838 16.1244435 5.02136 15.9735263 5.300776"></polygon>
            <polygon id="Path-6-Copy" fill="#FF9388" points="20.4469391 6.2468 8.3238759 3.55271368e-15 7.55273043 0.2116 7.16447065 1.34959838 16.0789471 5.09687208 15.9735263 5.300776"></polygon>
        </g>
        <g id="Book-R" transform="translate(102.035412, 36.199224)">
            <polygon id="Fill-18" fill="#67CDE9" points="20.4469391 6.2468 17.4245565 14.3244 13.394713 14.3244 -5.1159077e-13 14.3244 4.62344348 2.51988"></polygon>
            <polygon id="Fill-20" fill="#50ABEF" points="20.4469391 6.2468 15.2428 5.02136 11.8019478 14.3244 17.4245565 14.3244"></polygon>
            <polygon id="Path-14" fill="#FFFFFF" points="6.56462609 2.97712 7.16447065 1.34959838 16.1244435 5.02136 15.9735263 5.300776"></polygon>
            <polygon id="Path-6" fill="#67CDE9" points="20.4469391 6.2468 8.3238759 -5.32907052e-14 7.55273043 0.2116 7.16447065 1.34959838 16.0789471 5.09687208 15.9735263 5.300776"></polygon>
        </g>
    </g>
</svg>